# xmcd
#
# Track frame offsets: 
#        150
#        46205
#        69188
#        103230
#        142448
#        161889
#        200222
#        221353
#        245242
#        268117
#        301434
#
# Disc length: 4434 seconds
#
# Revision: 0
# Processed by: cddbd v1.5.2PL0 Copyright (c) Steve Scherf et al.
# Submitted via: ExactAudioCopyFreeDBPlugin 1.0
#
DISCID=b511500b
DTITLE=Blues-Rock Collection (Various Artists) - Gekko Musik 1 - Querb
DTITLE=eet
DYEAR=2000
DGENRE=Blues Rock Progressiv
TTITLE0=David Bowie - Station To Station
TTITLE1=Robert Plant - Big Log
TTITLE2=Golden Earring - Mad Love´s Comming (Unplugged)
TTITLE3=Climax Blues Band - And Lonely
TTITLE4=Iggy Pop - Girls In N.Y.
TTITLE5=George Thorogood - One Bourbon, One Scotch, One Beer
TTITLE6=Tito and Tarantula - Angry Cockroaches
TTITLE7=Kingdom Come - What Love Can Be
TTITLE8=Waterboys - The Whole Of The Moon
TTITLE9=Can - Oh Yeah
TTITLE10=Ruts - Jah War
EXTD=
EXTT0=
EXTT1=
EXTT2=
EXTT3=
EXTT4=
EXTT5=
EXTT6=
EXTT7=
EXTT8=
EXTT9=
EXTT10=
PLAYORDER=
